<svg xmlns="http://www.w3.org/2000/svg" width="32" height="32" viewBox="0 0 32 32">
    <g fill="none" fill-rule="evenodd">
        <circle cx="16" cy="16" r="16" fill="#D93F6E"/>
        <path fill="#FFF" d="M16 9.455c4.06 0 7.364 3.303 7.364 7.363 0 1.825-.672 3.494-1.776 4.782l.937 2.864c.06.18-.013.377-.175.476-.066.04-.14.06-.214.06-.105 0-.21-.04-.289-.12l-1.873-1.873c-1.148.74-2.51 1.175-3.974 1.175-1.464 0-2.826-.435-3.974-1.175l-1.873 1.873c-.079.08-.184.12-.29.12-.073 0-.147-.02-.214-.06-.16-.1-.233-.296-.174-.476l.936-2.864c-1.103-1.288-1.775-2.957-1.775-4.782 0-4.06 3.304-7.363 7.364-7.363zm0 2.454c-.226 0-.41.183-.41.41v3.807c-.24.143-.408.393-.408.692 0 .451.367.818.818.818.07 0 .134-.023.2-.04l1.966 1.966c.08.08.184.12.289.12.105 0 .21-.04.29-.12.159-.16.159-.419 0-.578l-1.967-1.966c.017-.066.04-.13.04-.2 0-.299-.169-.55-.409-.692v-3.808c0-.226-.183-.409-.409-.409zM10.682 7c.983 0 1.907.383 2.603 1.078.077.077.12.18.12.29 0 .108-.043.212-.12.289l-4.628 4.628c-.077.077-.18.12-.29.12-.108 0-.212-.043-.289-.12C7.383 12.59 7 11.665 7 10.682 7 8.652 8.652 7 10.682 7zm10.636 0C23.348 7 25 8.652 25 10.682c0 .983-.383 1.908-1.078 2.603-.077.077-.18.12-.29.12-.108 0-.212-.043-.289-.12l-4.628-4.628c-.077-.077-.12-.181-.12-.29 0-.108.043-.212.12-.289C19.41 7.383 20.335 7 21.318 7z"/>
    </g>
</svg>
