<svg xmlns="http://www.w3.org/2000/svg" width="24" height="24" viewBox="0 0 24 24">
    <g fill="none" fill-rule="evenodd">
        <path fill="#000" d="M21 19.617v-1.109l-2.263-2.273v-5.602c0-1.75-.44-3.265-1.32-4.546-.899-1.335-2.139-2.2-3.72-2.597v-.785c0-.47-.166-.87-.498-1.204C12.867 1.167 12.467 1 12 1c-.467 0-.862.167-1.186.5-.323.334-.485.736-.485 1.205v.785c-1.598.396-2.847 1.253-3.745 2.57-.88 1.281-1.32 2.806-1.32 4.573v5.602L3 18.508v1.11h18zM12 23c.61 0 1.14-.216 1.59-.65.449-.432.673-.956.673-1.569H9.737c0 .613.22 1.137.66 1.57.44.433.974.649 1.603.649z"/>
    </g>
</svg>
