<svg xmlns="http://www.w3.org/2000/svg" width="40" height="40" viewBox="0 0 40 40">
    <defs>
        <linearGradient id="prefix__a" x1="50%" x2="50%" y1="0%" y2="100%">
            <stop offset="0%" stop-color="#BE75D8"/>
            <stop offset="100%" stop-color="#8A40AF"/>
        </linearGradient>
    </defs>
    <g fill="none" fill-rule="evenodd">
        <circle cx="20" cy="20" r="20" fill="url(#prefix__a)"/>
        <path fill="#FFF" d="M31.25 20.53v7.161c0 1.275-1.022 2.309-2.28 2.309H11.031c-1.26 0-2.282-1.034-2.282-2.309v-7.16h9.113v2.647c0 .432.346.784.773.784h2.726c.43 0 .776-.352.776-.784V20.53h9.112zM21.225 19.2v3.838h-2.45V19.2h2.45zm7.744-4.154c1.259 0 2.281 1.035 2.281 2.31v2.25h-9.112v-.546c0-.432-.347-.783-.776-.783h-2.726c-.427 0-.773.35-.773.783v.546H8.75v-2.25c0-1.275 1.021-2.31 2.282-2.31zM22.19 10c1.238 0 2.245 1.02 2.245 2.273v.981c0 .47-.377.85-.839.85-.462 0-.838-.381-.838-.85v-.981c0-.317-.254-.574-.568-.574H17.81c-.311 0-.565.257-.565.574v.981c0 .47-.377.85-.84.85-.462 0-.838-.381-.838-.85v-.981c0-1.253 1.007-2.273 2.243-2.273z"/>
    </g>
</svg>
