<svg xmlns="http://www.w3.org/2000/svg" xmlns:xlink="http://www.w3.org/1999/xlink" width="32" height="32" viewBox="0 0 32 32">
    <defs>
        <filter id="prefix__a" width="334.4%" height="334.4%" x="-117.2%" y="-117.2%" filterUnits="objectBoundingBox">
            <feOffset dy="4" in="SourceAlpha" result="shadowOffsetOuter1"/>
            <feGaussianBlur in="shadowOffsetOuter1" result="shadowBlurOuter1" stdDeviation="3"/>
            <feComposite in="shadowBlurOuter1" in2="SourceAlpha" operator="out" result="shadowBlurOuter1"/>
            <feColorMatrix in="shadowBlurOuter1" result="shadowMatrixOuter1" values="0 0 0 0 0 0 0 0 0 0 0 0 0 0 0 0 0 0 0.06 0"/>
            <feOffset in="SourceAlpha" result="shadowOffsetOuter2"/>
            <feGaussianBlur in="shadowOffsetOuter2" result="shadowBlurOuter2" stdDeviation="12.5"/>
            <feComposite in="shadowBlurOuter2" in2="SourceAlpha" operator="out" result="shadowBlurOuter2"/>
            <feColorMatrix in="shadowBlurOuter2" result="shadowMatrixOuter2" values="0 0 0 0 0.215686275 0 0 0 0 0.411764706 0 0 0 0 1 0 0 0 0.25 0"/>
            <feMerge>
                <feMergeNode in="shadowMatrixOuter1"/>
                <feMergeNode in="shadowMatrixOuter2"/>
            </feMerge>
        </filter>
        <circle id="prefix__b" cx="16" cy="16" r="16"/>
    </defs>
    <g fill="none" fill-rule="evenodd">
        <path fill="#FFF" d="M-367 -255H46V424H-367z"/>
        <use fill="#000" filter="url(#prefix__a)" xlink:href="#prefix__b"/>
        <use fill="#FFF" fill-opacity="0" xlink:href="#prefix__b"/>
        <circle cx="16" cy="16" r="16" fill="#FFF"/>
        <circle cx="16" cy="16" r="15.75" stroke="#3165FF" stroke-width=".5"/>
        <g fill="#3769FF">
            <path d="M17.164 14.364l-2.317-2.322c-.461-.46-1.225-.446-1.703.032l-1.167 1.17c-.074-.04-.15-.083-.23-.129-.737-.409-1.746-.97-2.807-2.034C7.875 10.014 7.315 9 6.905 8.262c-.043-.078-.084-.154-.125-.226l.783-.783.385-.387c.478-.48.492-1.245.031-1.707L5.663 2.837c-.46-.461-1.225-.447-1.703.032l-.653.658.018.018c-.22.28-.402.603-.538.951-.126.331-.204.648-.24.965-.306 2.541.853 4.864 3.998 8.016 4.347 4.357 7.85 4.028 8.002 4.011.329-.039.644-.118.965-.243.344-.134.666-.317.945-.536l.014.012.662-.649c.477-.48.49-1.245.03-1.708z" transform="translate(6 6)"/>
        </g>
    </g>
</svg>
