<svg xmlns="http://www.w3.org/2000/svg" width="24" height="24" viewBox="0 0 24 24">
    <path fill="#3769FF" fill-rule="evenodd" d="M20.596 17.237l-2.78-2.786c-.553-.553-1.47-.536-2.043.038l-1.4 1.404-.277-.154c-.884-.492-2.095-1.165-3.368-2.442-1.278-1.28-1.95-2.496-2.442-3.383-.052-.094-.101-.184-.15-.27l.94-.94.462-.465c.574-.575.59-1.494.037-2.048l-2.78-2.787c-.552-.553-1.47-.536-2.043.039l-.784.79.022.02c-.263.337-.483.724-.646 1.142-.15.398-.244.777-.287 1.158-.367 3.05 1.023 5.837 4.797 9.62 5.217 5.227 9.42 4.832 9.602 4.813.395-.047.773-.142 1.158-.291.413-.162.8-.382 1.135-.645l.017.016.793-.78c.573-.575.59-1.494.037-2.049z"/>
</svg>
